<svg xmlns="http://www.w3.org/2000/svg" width="244.283" height="52.818" viewBox="0 0 244.283 52.818">
  <g id="Groupe_87" data-name="Groupe 87" transform="translate(-18.554 -44.656)">
    <g id="Groupe_1" data-name="Groupe 1" transform="translate(18.554 44.656)">
      <path id="Tracé_1" data-name="Tracé 1" d="M58.545,100.58,18.571,80.564l-.018-11,40,20.025Z" transform="translate(-18.554 -58.661)" fill="#0091da"/>
      <path id="Tracé_2" data-name="Tracé 2" d="M19.759,115.533l35.789,17.875-14.156,3.921-21.633-10.9Z" transform="translate(-19.231 -84.514)" fill="#0091da"/>
      <path id="Tracé_3" data-name="Tracé 3" d="M63.954,66.45,28.165,48.578l14.157-3.921,21.632,10.9Z" transform="translate(-23.959 -44.656)" fill="#0091da"/>
    </g>
    <g id="Groupe_3" data-name="Groupe 3" transform="translate(91.227 44.656)">
      <path id="Tracé_4" data-name="Tracé 4" d="M204.185,68.244c-8.135-.807-12.759-1.568-13.218-7.825a7.7,7.7,0,0,1,1.628-5.65c2.468-3.236,7.07-4.445,10.555-4.5l.286,0c4.037,0,7.7,1.346,9.786,3.573a8.209,8.209,0,0,1,2,3.964l.365,2.882,5.51-1.1-.356-2.79c-1.574-8.388-9.792-12.144-17.238-12.144-6.4,0-12.159,2.51-15.416,6.726a13.247,13.247,0,0,0-2.69,9.438c.778,11.256,10.391,12.223,18.115,13,7.278.732,11.79,1.42,12.809,6.127A8.289,8.289,0,0,1,214.7,87.2c-2.314,2.848-6.755,4.688-11.315,4.688-4.925,0-12.14-2.667-12.771-8.689l-.387-2.7-5.619.705.387,2.694c.936,8.819,10.142,13.575,18.323,13.575,6.378,0,12.465-2.633,15.887-6.872a13.621,13.621,0,0,0,2.668-11.807C219.947,69.8,211.209,68.938,204.185,68.244Z" transform="translate(-184.607 -44.656)" fill="#0091da"/>
      <path id="Tracé_5" data-name="Tracé 5" d="M306.173,50.432A19.639,19.639,0,0,1,320.4,56.466a20.433,20.433,0,0,1,4.081,6.057l.613,1.41h6.2l-1.34-3.235a26.28,26.28,0,0,0-5.439-8.238,25.462,25.462,0,0,0-36.691,0,26.7,26.7,0,0,0,0,37.2,25.468,25.468,0,0,0,36.693,0,26.532,26.532,0,0,0,5.437-8.236L331.3,78.2h-6.2l-.611,1.41a19.952,19.952,0,0,1-4.079,5.984,19.635,19.635,0,0,1-28.476-.012,20.637,20.637,0,0,1-5.938-14.547,20.891,20.891,0,0,1,5.951-14.563A19.647,19.647,0,0,1,306.173,50.432Z" transform="translate(-238.407 -44.656)" fill="#0091da"/>
      <path id="Tracé_6" data-name="Tracé 6" d="M436.359,44.656V81.665c0,7.351-8.156,10.09-13.3,10.09s-13.291-2.72-13.291-10.024V44.656h-5.72V81.665c0,10.269,9.8,15.806,19.011,15.806s19.014-5.516,19.014-15.74V44.656Z" transform="translate(-308.01 -44.656)" fill="#0091da"/>
      <g id="Groupe_2" data-name="Groupe 2" transform="translate(138.75)">
        <path id="Tracé_7" data-name="Tracé 7" d="M527.466,68.434a13.9,13.9,0,0,0,2.835-4.509,15.762,15.762,0,0,0-.017-10.968,12.776,12.776,0,0,0-12.3-8.3H502.161v5.776h15.825a7.107,7.107,0,0,1,6.977,4.635,9.569,9.569,0,0,1,.011,6.763,7.111,7.111,0,0,1-6.988,4.659H502.161v5.778h17.753c6.34,0,9.179,4.9,9.179,9.751a10.618,10.618,0,0,1-2.325,6.8,8.654,8.654,0,0,1-6.855,2.952H502.161v5.707h17.753c9.392,0,14.21-7,14.814-13.93C535.227,77.8,532.849,71.5,527.466,68.434Z" transform="translate(-501.933 -44.656)" fill="#0091da"/>
        <line id="Ligne_1" data-name="Ligne 1" x1="0.228" transform="translate(0 5.776)" fill="#2a343a"/>
        <line id="Ligne_2" data-name="Ligne 2" x2="0.228" transform="translate(0 21.833)" fill="#2a343a"/>
      </g>
    </g>
  </g>
</svg>
