<svg xmlns="http://www.w3.org/2000/svg" width="33.547" height="33.547" viewBox="0 0 33.547 33.547">
  <g id="Groupe_13" data-name="Groupe 13" transform="translate(-164 -42.276)">
    <path id="Tracé_13" data-name="Tracé 13" d="M196.034,47.78H189.16a.491.491,0,1,0,0,.983h6.874a.531.531,0,0,1,.53.53V68.216a.531.531,0,0,1-.53.53H165.513a.531.531,0,0,1-.53-.53V49.293a.531.531,0,0,1,.53-.53h10.8v.983h-9.853a.491.491,0,0,0-.491.491V63.221a.491.491,0,1,0,.983,0V50.728h9.361v2.636l-2.1,1.005a.5.5,0,0,0-.28.444v8.014a.492.492,0,0,0,.28.444l6.356,3.037a.5.5,0,0,0,.424,0l3.573-1.707a.491.491,0,1,0-.424-.887l-2.87,1.371V58.159l5.373-2.567v6.925l-.73.349a.491.491,0,1,0,.424.887l1.01-.482a.492.492,0,0,0,.28-.444V54.813a.494.494,0,0,0-.28-.444l-2.1-1.005V50.728H194.6V66.781h-27.65V65.318a.491.491,0,1,0-.983,0v1.955a.491.491,0,0,0,.491.491H195.09a.491.491,0,0,0,.491-.491V50.237a.491.491,0,0,0-.491-.491h-9.853v-.983h1.826a.491.491,0,0,0,0-.983h-1.826V46.8h4.406a.491.491,0,0,0,.491-.491V45.14a1.474,1.474,0,1,0-.983,0v.674h-4.406a.491.491,0,0,0-.491.491V47.78h-2.989V45.14a1.474,1.474,0,1,0-.983,0v2.64h-2.989V46.306a.491.491,0,0,0-.491-.491h-4.406V45.14a1.474,1.474,0,1,0-.983,0v1.166a.491.491,0,0,0,.491.491h4.406v.983h-10.8A1.515,1.515,0,0,0,164,49.293V68.216a1.515,1.515,0,0,0,1.513,1.513h10.654a4.683,4.683,0,0,1-1.758,3.145h-2.088a1.474,1.474,0,0,0,0,2.948h16.9a1.474,1.474,0,0,0,0-2.948h-2.087a4.73,4.73,0,0,1-1.759-3.145h10.653a1.515,1.515,0,0,0,1.513-1.513V49.293a1.515,1.515,0,0,0-1.513-1.513Zm-6.39-4.521a.491.491,0,1,1-.491.491.492.492,0,0,1,.491-.491Zm-8.87,0a.491.491,0,1,1-.491.491.492.492,0,0,1,.491-.491Zm-8.87,0a.491.491,0,1,1-.491.491.492.492,0,0,1,.491-.491Zm5.389,7.469h2.989v.738L177.293,52.9Zm8.7,4.085L180.773,57.3l-5.216-2.492,5.216-2.492Zm-11.08.779,5.373,2.567v6.925l-5.373-2.567Zm9.345-2.7-2.989-1.428v-.738h2.989Zm0-4.132v.983h-2.989v-.983Zm-3.972,0v.983h-2.989v-.983Zm9.435,25.586a.492.492,0,0,1-.491.491h-16.9a.491.491,0,1,1,0-.983h16.9a.492.492,0,0,1,.491.491Zm-3.988-1.474h-9.912a5.542,5.542,0,0,0,1.338-3.145h7.237a5.542,5.542,0,0,0,1.338,3.145Zm0,0" fill="#fff"/>
  </g>
</svg>
