<svg xmlns="http://www.w3.org/2000/svg" width="23.198" height="17.337" viewBox="0 0 23.198 17.337">
  <g id="Groupe_67" data-name="Groupe 67" transform="translate(-489.917 -392.175)">
    <path id="Tracé_43" data-name="Tracé 43" d="M493.621,432.18v-3.327h-3.7v-2.061l3.241-7.582h2.315V427.1H496.9v1.751h-1.432v3.327Zm-1.852-5.078h1.852v-5.569Z" transform="translate(0 -22.668)" fill="#637a8a"/>
    <path id="Tracé_44" data-name="Tracé 44" d="M538.066,431.545v-1.851l3.248-4.629c.038-.054.123-.171.252-.351s.217-.3.261-.369.119-.181.224-.348a3.48,3.48,0,0,0,.221-.384c.041-.089.1-.215.166-.379a2.761,2.761,0,0,0,.149-.437c.029-.129.054-.278.078-.449a3.861,3.861,0,0,0,.037-.526,2.31,2.31,0,0,0-.36-1.312,1.161,1.161,0,0,0-1.029-.539,1.173,1.173,0,0,0-.681.2,1.235,1.235,0,0,0-.431.543,3.26,3.26,0,0,0-.212.735,5.043,5.043,0,0,0-.066.843v.463h-1.851v-.463a4.526,4.526,0,0,1,.78-2.829,2.924,2.924,0,0,1,2.461-1,3.143,3.143,0,0,1,2.408.886,3.488,3.488,0,0,1,.833,2.484,5.626,5.626,0,0,1-.106,1.122,4.2,4.2,0,0,1-.332,1,8.859,8.859,0,0,1-.419.789c-.127.208-.305.473-.532.8l-3.241,4.166h4.631v1.851Z" transform="translate(-40.372 -22.034)" fill="#637a8a"/>
    <path id="Tracé_45" data-name="Tracé 45" d="M589.64,392.175a3.856,3.856,0,1,0,3.862,3.856,3.86,3.86,0,0,0-3.862-3.856m0,6.572a2.716,2.716,0,1,1,2.718-2.716,2.717,2.717,0,0,1-2.718,2.716" transform="translate(-80.386)" fill="#637a8a"/>
    <path id="Tracé_46" data-name="Tracé 46" d="M601.211,405.521h-.791v-.792a.48.48,0,0,0-.475-.479h-.317a.48.48,0,0,0-.474.479v.792h-.791a.479.479,0,0,0-.474.478v.316a.476.476,0,0,0,.474.475h.791v.791a.481.481,0,0,0,.474.48h.317a.481.481,0,0,0,.475-.48v-.791h.791a.484.484,0,0,0,.483-.475V406a.488.488,0,0,0-.483-.478" transform="translate(-90.533 -10.125)" fill="#637a8a"/>
  </g>
</svg>
