<svg xmlns="http://www.w3.org/2000/svg" width="113" height="24.432" viewBox="0 0 113 24.432">
  <g id="Groupe_6" data-name="Groupe 6" transform="translate(-18.554 -44.656)">
    <g id="Groupe_1" data-name="Groupe 1" transform="translate(18.554 44.656)">
      <path id="Tracé_1" data-name="Tracé 1" d="M37.053,83.909,18.562,74.65l-.008-5.09,18.5,9.263Z" transform="translate(-18.554 -64.519)" fill="#fff"/>
      <path id="Tracé_2" data-name="Tracé 2" d="M19.759,115.533,36.314,123.8l-6.548,1.814-10.007-5.041Z" transform="translate(-19.515 -101.184)" fill="#fff"/>
      <path id="Tracé_3" data-name="Tracé 3" d="M44.72,54.738,28.165,46.47l6.549-1.814L44.72,49.7Z" transform="translate(-26.219 -44.656)" fill="#fff"/>
    </g>
    <g id="Groupe_3" data-name="Groupe 3" transform="translate(52.171 44.656)">
      <path id="Tracé_4" data-name="Tracé 4" d="M193.664,55.567c-3.763-.373-5.9-.725-6.115-3.62a3.562,3.562,0,0,1,.753-2.614,6.388,6.388,0,0,1,4.883-2.081h.132a6.266,6.266,0,0,1,4.527,1.653,3.8,3.8,0,0,1,.923,1.834l.169,1.333,2.549-.507-.165-1.291c-.728-3.88-4.53-5.618-7.974-5.618a8.94,8.94,0,0,0-7.131,3.111,6.128,6.128,0,0,0-1.244,4.366c.36,5.207,4.807,5.654,8.38,6.012,3.367.338,5.454.657,5.925,2.834a3.834,3.834,0,0,1-.748,3.356,6.906,6.906,0,0,1-5.234,2.168c-2.278,0-5.616-1.234-5.907-4.019l-.179-1.248-2.6.326.179,1.246c.433,4.08,4.691,6.279,8.476,6.279a9.546,9.546,0,0,0,7.349-3.179,6.3,6.3,0,0,0,1.234-5.462C200.954,56.289,196.913,55.888,193.664,55.567Z" transform="translate(-184.607 -44.656)" fill="#fff"/>
      <path id="Tracé_5" data-name="Tracé 5" d="M292.256,47.328a9.085,9.085,0,0,1,6.581,2.791,9.452,9.452,0,0,1,1.888,2.8l.284.652h2.869l-.62-1.5a12.156,12.156,0,0,0-2.516-3.811,11.778,11.778,0,0,0-16.972,0,12.351,12.351,0,0,0,0,17.21,11.781,11.781,0,0,0,16.973,0,12.273,12.273,0,0,0,2.515-3.81l.62-1.5h-2.87l-.283.652a9.229,9.229,0,0,1-1.887,2.768,9.083,9.083,0,0,1-13.173-.005,9.546,9.546,0,0,1-2.747-6.729,9.664,9.664,0,0,1,2.753-6.737A9.088,9.088,0,0,1,292.256,47.328Z" transform="translate(-260.91 -44.656)" fill="#fff"/>
      <path id="Tracé_6" data-name="Tracé 6" d="M419,44.656v17.12c0,3.4-3.773,4.667-6.151,4.667s-6.148-1.258-6.148-4.637V44.656H404.05v17.12c0,4.75,4.532,7.312,8.794,7.312s8.8-2.552,8.8-7.281V44.656Z" transform="translate(-359.624 -44.656)" fill="#fff"/>
      <g id="Groupe_2" data-name="Groupe 2" transform="translate(64.183)">
        <path id="Tracé_7" data-name="Tracé 7" d="M513.867,55.655a6.428,6.428,0,0,0,1.311-2.086,7.291,7.291,0,0,0-.008-5.074,5.91,5.91,0,0,0-5.689-3.84h-7.32v2.672h7.32a3.287,3.287,0,0,1,3.228,2.144,4.426,4.426,0,0,1,.005,3.128,3.289,3.289,0,0,1-3.233,2.155h-7.32v2.673h8.212c2.933,0,4.246,2.265,4.246,4.511a4.912,4.912,0,0,1-1.075,3.144,4,4,0,0,1-3.171,1.365h-8.212v2.64h8.212a6.7,6.7,0,0,0,6.853-6.444A7.266,7.266,0,0,0,513.867,55.655Z" transform="translate(-502.055 -44.656)" fill="#fff"/>
        <line id="Ligne_1" data-name="Ligne 1" x1="0.106" transform="translate(0 2.672)" fill="#2a343a"/>
        <line id="Ligne_2" data-name="Ligne 2" x2="0.106" transform="translate(0 10.099)" fill="#2a343a"/>
      </g>
    </g>
  </g>
</svg>
