<svg xmlns="http://www.w3.org/2000/svg" width="15.531" height="9.558" viewBox="0 0 15.531 9.558">
  <g id="Groupe_68" data-name="Groupe 68" transform="translate(-3859 725.558) rotate(-90)">
    <path id="Tracé_12" data-name="Tracé 12" d="M231.41,195.4l-4.338-5a.4.4,0,0,0-.624,0l-4.336,5a.552.552,0,0,0-.13.358.544.544,0,0,0,.131.359.4.4,0,0,0,.622,0l4.026-4.634,4.026,4.636a.4.4,0,0,0,.624,0,.563.563,0,0,0,0-.718Z" transform="translate(494.018 3668.744)" fill="#fff"/>
    <line id="Ligne_27" data-name="Ligne 27" y2="15.031" transform="translate(720.776 3859.5)" fill="none" stroke="#fff" stroke-width="1"/>
  </g>
</svg>
