<svg xmlns="http://www.w3.org/2000/svg" width="18" height="18" viewBox="0 0 18 18">
  <g id="Groupe_9" data-name="Groupe 9" transform="translate(-164 -42.276)">
    <path id="Tracé_8" data-name="Tracé 8" d="M173,42.276a9,9,0,1,0,9,9,9,9,0,0,0-9-9Zm4.109,7.017q.006.133.006.267a5.838,5.838,0,0,1-5.878,5.878h0a5.847,5.847,0,0,1-3.166-.928,4.2,4.2,0,0,0,.493.029,4.145,4.145,0,0,0,2.566-.884,2.068,2.068,0,0,1-1.93-1.435,2.058,2.058,0,0,0,.933-.035,2.066,2.066,0,0,1-1.657-2.025c0-.009,0-.018,0-.026a2.052,2.052,0,0,0,.936.258,2.068,2.068,0,0,1-.64-2.758,5.865,5.865,0,0,0,4.258,2.158,2.067,2.067,0,0,1,3.52-1.884,4.144,4.144,0,0,0,1.312-.5,2.074,2.074,0,0,1-.908,1.143,4.119,4.119,0,0,0,1.186-.325,4.2,4.2,0,0,1-1.03,1.07Zm0,0" fill="#637a8a"/>
  </g>
</svg>
