<svg xmlns="http://www.w3.org/2000/svg" width="33.547" height="25.719" viewBox="0 0 33.547 25.719">
  <g id="Groupe_14" data-name="Groupe 14" transform="translate(-16 -64.007)">
    <path id="Tracé_14" data-name="Tracé 14" d="M168.559,79.1h11.182a.559.559,0,0,0,.559-.559v-6.15a1.679,1.679,0,0,0-1.677-1.677h-2.236v-.855a3.356,3.356,0,1,0-4.473,0v.854h-2.236A1.679,1.679,0,0,0,168,72.393v6.15A.559.559,0,0,0,168.559,79.1Zm.559-6.709a.56.56,0,0,1,.559-.559h2.8a.559.559,0,0,0,.559-.559V69.6a.56.56,0,0,0-.223-.447,2.236,2.236,0,1,1,2.682,0,.56.56,0,0,0-.223.447v1.677a.559.559,0,0,0,.559.559h2.8a.56.56,0,0,1,.559.559v5.591H169.118Z" transform="translate(-141.377 0)" fill="#fff"/>
    <path id="Tracé_15" data-name="Tracé 15" d="M25.5,107.749H17.118v-3.355a.56.56,0,0,1,.559-.559h2.236a.559.559,0,0,0,.559-.559V101.6a.56.56,0,0,0-.223-.447,2.236,2.236,0,1,1,2.682,0,.56.56,0,0,0-.223.447v1.677a.559.559,0,0,0,.559.559H25.5v-1.118H23.828v-.855a3.356,3.356,0,1,0-4.473,0v.854H17.677A1.679,1.679,0,0,0,16,104.395v3.914a.559.559,0,0,0,.559.559H25.5Z" transform="translate(0 -29.765)" fill="#fff"/>
    <path id="Tracé_16" data-name="Tracé 16" d="M367.828,102.72H366.15v-.854a3.355,3.355,0,1,0-4.473,0v.855H360v1.118h2.236a.559.559,0,0,0,.559-.559V101.6a.56.56,0,0,0-.223-.447,2.236,2.236,0,0,1-.081-3.515,2.236,2.236,0,1,1,2.763,3.515.56.56,0,0,0-.223.447v1.677a.559.559,0,0,0,.559.559h2.236a.56.56,0,0,1,.559.559v3.355H360v1.118h8.946a.559.559,0,0,0,.559-.559V104.4A1.679,1.679,0,0,0,367.828,102.72Z" transform="translate(-319.958 -29.768)" fill="#fff"/>
    <path id="Tracé_17" data-name="Tracé 17" d="M121.505,296.559a2.8,2.8,0,0,0,2.8,2.8h1.677v.625l-3.887.486-4.779-1.062-1-1a2.935,2.935,0,0,0-4.145,0,.559.559,0,0,0,0,.791l3.914,3.914a.56.56,0,0,0,.188.124l5.591,2.236a.559.559,0,0,0,.208.04.547.547,0,0,0,.092-.008l6.664-1.111h6.663v-1.118H131.01v-6.15h4.473V296H122.064A.559.559,0,0,0,121.505,296.559Zm8.387.559v6.15h-1.118a.547.547,0,0,0-.092.008l-6.555,1.093-5.339-2.136-3.375-3.375a1.816,1.816,0,0,1,2.106.333l1.118,1.118a.556.556,0,0,0,.274.15l5.032,1.118a.548.548,0,0,0,.191.009l4.473-.559a.559.559,0,0,0,.49-.555V298.8a.559.559,0,0,0-.559-.559H124.3a1.68,1.68,0,0,1-1.582-1.118Z" transform="translate(-89.291 -215.779)" fill="#fff"/>
  </g>
</svg>
