<svg xmlns="http://www.w3.org/2000/svg" width="156.397" height="33.815" viewBox="0 0 156.397 33.815">
  <g id="Groupe_31" data-name="Groupe 31" transform="translate(-18.557 -44.656)">
    <g id="Groupe_28" data-name="Groupe 28" transform="translate(18.557 44.656)">
      <path id="Tracé_35" data-name="Tracé 35" d="M44.16,89.42,18.568,76.605l-.011-7.045,25.606,12.82Z" transform="translate(-18.557 -62.582)" fill="#fff"/>
      <path id="Tracé_36" data-name="Tracé 36" d="M19.762,115.533l22.913,11.444-9.063,2.51-13.85-6.977Z" transform="translate(-19.424 -95.674)" fill="#fff"/>
      <path id="Tracé_37" data-name="Tracé 37" d="M51.081,58.609,28.168,47.167l9.063-2.511,13.85,6.978Z" transform="translate(-25.475 -44.656)" fill="#fff"/>
    </g>
    <g id="Groupe_30" data-name="Groupe 30" transform="translate(65.084 44.656)">
      <path id="Tracé_38" data-name="Tracé 38" d="M197.144,59.758c-5.208-.517-8.169-1-8.463-5.01a4.931,4.931,0,0,1,1.042-3.617c1.581-2.072,4.527-2.846,6.758-2.88h.183a8.671,8.671,0,0,1,6.265,2.287,5.255,5.255,0,0,1,1.278,2.538l.233,1.845,3.528-.7-.228-1.787c-1.008-5.371-6.269-7.775-11.036-7.775-4.1,0-7.785,1.607-9.87,4.306A8.48,8.48,0,0,0,185.111,55c.5,7.207,6.652,7.826,11.6,8.321,4.66.468,7.548.909,8.2,3.923a5.307,5.307,0,0,1-1.035,4.644,9.559,9.559,0,0,1-7.245,3c-3.153,0-7.772-1.708-8.176-5.563l-.247-1.728-3.6.452.248,1.725c.6,5.646,6.493,8.691,11.731,8.691a13.211,13.211,0,0,0,10.171-4.4,8.721,8.721,0,0,0,1.708-7.559C207.234,60.756,201.641,60.2,197.144,59.758Z" transform="translate(-184.609 -44.656)" fill="#fff"/>
      <path id="Tracé_39" data-name="Tracé 39" d="M296.859,48.354a12.574,12.574,0,0,1,9.109,3.863,13.077,13.077,0,0,1,2.613,3.878l.393.9h3.97l-.858-2.071a16.834,16.834,0,0,0-3.482-5.274,16.3,16.3,0,0,0-23.491,0,17.094,17.094,0,0,0,0,23.82,16.305,16.305,0,0,0,23.492,0,16.983,16.983,0,0,0,3.481-5.273l.858-2.07h-3.972l-.391.9a12.773,12.773,0,0,1-2.611,3.831,12.571,12.571,0,0,1-18.232-.008,13.212,13.212,0,0,1-3.8-9.313,13.375,13.375,0,0,1,3.81-9.324A12.579,12.579,0,0,1,296.859,48.354Z" transform="translate(-253.474 -44.656)" fill="#fff"/>
      <path id="Tracé_40" data-name="Tracé 40" d="M424.738,44.656V68.35c0,4.706-5.222,6.46-8.514,6.46s-8.509-1.741-8.509-6.418V44.656h-3.662V68.35c0,6.574,6.272,10.12,12.172,10.12S428.4,74.938,428.4,68.393V44.656Z" transform="translate(-342.565 -44.656)" fill="#fff"/>
      <g id="Groupe_29" data-name="Groupe 29" transform="translate(88.832)">
        <path id="Tracé_41" data-name="Tracé 41" d="M518.365,59.88a8.9,8.9,0,0,0,1.815-2.887,10.093,10.093,0,0,0-.012-7.022,8.179,8.179,0,0,0-7.874-5.315H502.164v3.7H512.3a4.55,4.55,0,0,1,4.468,2.967,6.131,6.131,0,0,1,.007,4.33,4.553,4.553,0,0,1-4.474,2.983H502.164v3.7H513.53c4.059,0,5.877,3.135,5.877,6.243a6.8,6.8,0,0,1-1.488,4.352,5.541,5.541,0,0,1-4.388,1.89H502.164v3.654H513.53c6.013,0,9.1-4.479,9.484-8.919C523.333,65.877,521.811,61.841,518.365,59.88Z" transform="translate(-502.018 -44.656)" fill="#fff"/>
        <line id="Ligne_24" data-name="Ligne 24" x1="0.146" transform="translate(0 3.698)" fill="#20282d"/>
        <line id="Ligne_25" data-name="Ligne 25" x2="0.146" transform="translate(0 13.978)" fill="#20282d"/>
      </g>
    </g>
  </g>
</svg>
