<svg xmlns="http://www.w3.org/2000/svg" width="18" height="18" viewBox="0 0 18 18">
  <g id="Groupe_10" data-name="Groupe 10" transform="translate(-164 -42.276)">
    <path id="Tracé_9" data-name="Tracé 9" d="M173,42.276a9,9,0,1,0,9,9,9,9,0,0,0-9-9Zm-2.615,13.605h-2.192V49.287h2.192Zm-1.1-7.495h-.014a1.252,1.252,0,1,1,.014,0Zm9,7.495H176.1V52.354c0-.887-.317-1.491-1.11-1.491a1.2,1.2,0,0,0-1.125.8,1.5,1.5,0,0,0-.072.535v3.683H171.6s.029-5.976,0-6.594h2.192v.934a2.176,2.176,0,0,1,1.975-1.088c1.442,0,2.523.943,2.523,2.968Zm0,0" fill="#637a8a"/>
  </g>
</svg>
