<svg xmlns="http://www.w3.org/2000/svg" width="33.547" height="28.043" viewBox="0 0 33.547 28.043">
  <g id="Groupe_15" data-name="Groupe 15" transform="translate(-164 -126.276)">
    <g id="Groupe_15-2" data-name="Groupe 15" transform="translate(164 126.276)">
      <path id="Tracé_18" data-name="Tracé 18" d="M194.491,171.357a.491.491,0,0,0-.491.491V173.8a.491.491,0,0,0,.491.491h28.633a.491.491,0,0,0,.491-.491V156.767a.491.491,0,0,0-.491-.491H194.491a.491.491,0,0,0-.491.491v12.984a.491.491,0,1,0,.983,0V157.259h27.65v16.053h-27.65v-1.463A.491.491,0,0,0,194.491,171.357Z" transform="translate(-192.034 -154.31)" fill="#fff"/>
      <path id="Tracé_19" data-name="Tracé 19" d="M196.034,126.276H189.16a.491.491,0,1,0,0,.983h6.874a.531.531,0,0,1,.53.53v18.923a.531.531,0,0,1-.53.53H165.513a.531.531,0,0,1-.53-.53V127.789a.531.531,0,0,1,.53-.53h21.55a.491.491,0,0,0,0-.983h-21.55A1.515,1.515,0,0,0,164,127.789v18.923a1.515,1.515,0,0,0,1.513,1.513h10.654a4.683,4.683,0,0,1-1.758,3.145h-2.088a1.474,1.474,0,1,0,0,2.948h16.9a1.474,1.474,0,0,0,0-2.948h-2.087a4.73,4.73,0,0,1-1.759-3.145h10.653a1.515,1.515,0,0,0,1.513-1.513V127.789A1.515,1.515,0,0,0,196.034,126.276Zm-6.808,26.077a.491.491,0,0,1,0,.983h-16.9a.491.491,0,1,1,0-.983Zm-3.5-.983h-9.912a5.542,5.542,0,0,0,1.338-3.145h7.237A5.542,5.542,0,0,0,185.73,151.371Z" transform="translate(-164 -126.276)" fill="#fff"/>
    </g>
    <g id="Groupe_17" data-name="Groupe 17" transform="translate(168.97 130.942)">
      <path id="Tracé_20" data-name="Tracé 20" d="M240.3,225.458h5.42a.452.452,0,1,0,0-.9H240.3a.452.452,0,1,0,0,.9Z" transform="translate(-239.853 -222.782)" fill="#fff"/>
      <path id="Tracé_21" data-name="Tracé 21" d="M350.6,225.458h2.258a.452.452,0,0,0,0-.9H350.6a.452.452,0,0,0,0,.9Z" transform="translate(-342.919 -222.782)" fill="#fff"/>
      <path id="Tracé_22" data-name="Tracé 22" d="M417.151,224.555h-4.516a.452.452,0,1,0,0,.9h4.516a.452.452,0,1,0,0-.9Z" transform="translate(-400.892 -222.782)" fill="#fff"/>
      <path id="Tracé_23" data-name="Tracé 23" d="M240.3,253.031h8.13a.452.452,0,1,0,0-.9H240.3a.452.452,0,1,0,0,.9Z" transform="translate(-239.853 -248.548)" fill="#fff"/>
      <path id="Tracé_24" data-name="Tracé 24" d="M397.828,252.128h-5.872a.452.452,0,0,0,0,.9h5.872a.452.452,0,1,0,0-.9Z" transform="translate(-381.569 -248.548)" fill="#fff"/>
      <path id="Tracé_25" data-name="Tracé 25" d="M240.3,328.857h5.42a.452.452,0,1,0,0-.9H240.3a.452.452,0,1,0,0,.9Z" transform="translate(-239.853 -319.406)" fill="#fff"/>
      <path id="Tracé_26" data-name="Tracé 26" d="M350.146,328.406a.452.452,0,0,0,.452.452h2.258a.452.452,0,0,0,0-.9H350.6A.452.452,0,0,0,350.146,328.406Z" transform="translate(-342.919 -319.406)" fill="#fff"/>
      <path id="Tracé_27" data-name="Tracé 27" d="M417.151,327.954h-4.516a.452.452,0,1,0,0,.9h4.516a.452.452,0,1,0,0-.9Z" transform="translate(-400.892 -319.406)" fill="#fff"/>
      <g id="Groupe_16" data-name="Groupe 16" transform="translate(18.099)">
        <path id="Tracé_28" data-name="Tracé 28" d="M516.349,198.43a.422.422,0,0,0-.257.458l.244,1.46a3.547,3.547,0,0,0,1.383,2.275l.793.6a.421.421,0,0,0,.5,0l.793-.6a3.548,3.548,0,0,0,1.383-2.275l.243-1.46a.421.421,0,0,0-.257-.458l-2.258-.9a.425.425,0,0,0-.312,0Zm2.414-.064,1.789.716-.188,1.128a2.719,2.719,0,0,1-1.06,1.743l-.542.406-.542-.406a2.72,2.72,0,0,1-1.06-1.744l-.188-1.128Z" transform="translate(-516.086 -197.497)" fill="#fff"/>
        <path id="Tracé_29" data-name="Tracé 29" d="M521.191,303.736l.243-1.46a.421.421,0,0,0-.257-.459l-2.258-.9a.426.426,0,0,0-.312,0l-2.258.9a.422.422,0,0,0-.257.458l.244,1.46a3.547,3.547,0,0,0,1.383,2.275l.793.6a.421.421,0,0,0,.5,0l.793-.6A3.548,3.548,0,0,0,521.191,303.736Zm-1.888,1.606-.54.406-.542-.406a2.72,2.72,0,0,1-1.06-1.744l-.188-1.128,1.79-.716,1.789.716-.189,1.129A2.719,2.719,0,0,1,519.3,305.342Z" transform="translate(-516.086 -294.11)" fill="#fff"/>
      </g>
      <path id="Tracé_30" data-name="Tracé 30" d="M248.434,355.527H240.3a.452.452,0,1,0,0,.9h8.13a.452.452,0,1,0,0-.9Z" transform="translate(-239.853 -345.173)" fill="#fff"/>
      <path id="Tracé_31" data-name="Tracé 31" d="M397.828,355.527h-5.872a.452.452,0,0,0,0,.9h5.872a.452.452,0,1,0,0-.9Z" transform="translate(-381.569 -345.173)" fill="#fff"/>
    </g>
  </g>
</svg>
